<?xml version="1.0" standalone="no"?>
<!DOCTYPE svg PUBLIC "-//W3C//DTD SVG 20010904//EN"
 "http://www.w3.org/TR/2001/REC-SVG-20010904/DTD/svg10.dtd">
<svg version="1.0" xmlns="http://www.w3.org/2000/svg"
 width="520.000000pt" height="390.000000pt" viewBox="0 0 520.000000 390.000000"
 preserveAspectRatio="xMidYMid meet">

<g transform="translate(0.000000,390.000000) scale(0.100000,-0.100000)"
fill="#000000" stroke="none">
<path d="M2752 3680 c-59 -13 -994 -498 -1062 -552 -40 -32 -64 -62 -90 -112
l-35 -69 -3 -1253 -2 -1254 110 0 110 0 2 1228 c3 1120 4 1230 20 1257 34 62
16 52 724 416 267 137 300 147 362 115 36 -19 78 -65 91 -99 8 -20 11 -476 11
-1473 l0 -1444 110 0 110 0 0 919 0 919 108 -34 c59 -18 172 -53 252 -76 l145
-44 2 -182 c1 -99 -1 -183 -5 -185 -6 -3 -134 26 -294 66 l-28 7 0 -144 0
-145 38 -11 c22 -5 61 -14 88 -19 107 -21 189 -43 195 -53 8 -13 5 -395 -3
-404 -4 -3 -30 2 -59 11 -116 39 -219 11 -271 -72 -22 -37 -23 -46 -26 -296
l-3 -257 290 0 291 0 0 811 c0 767 1 810 18 805 357 -102 405 -127 450 -229 9
-21 12 -196 12 -707 l0 -680 55 0 c71 0 116 19 146 61 l24 34 0 650 c0 600 -1
654 -18 702 -38 109 -138 210 -260 262 -24 11 -219 71 -433 135 -367 110 -431
129 -631 187 l-82 24 -3 450 c-3 492 -3 488 -65 577 -80 117 -253 187 -391
158z"/>
<path d="M3440 3076 l0 -113 34 -6 c18 -3 71 -15 117 -28 67 -18 92 -30 127
-63 65 -59 72 -84 72 -240 l0 -135 53 -15 c28 -8 71 -20 95 -26 24 -6 50 -14
59 -17 13 -5 14 16 11 183 -3 162 -7 196 -25 241 -64 160 -207 261 -443 314
-47 10 -88 19 -92 19 -5 0 -8 -51 -8 -114z"/>
<path d="M2373 2647 l-193 -72 0 -167 c0 -93 3 -168 8 -168 4 0 96 21 205 47
l197 47 0 193 c0 148 -3 193 -12 192 -7 -1 -100 -33 -205 -72z"/>
<path d="M1295 2325 c-55 -28 -179 -91 -275 -140 -238 -123 -309 -192 -339
-333 -7 -36 -11 -253 -11 -675 0 -572 1 -625 18 -656 27 -54 63 -74 137 -79
l65 -4 0 673 c0 635 2 676 19 714 10 22 31 52 47 67 16 14 121 73 234 130 113
56 208 107 212 113 4 5 8 57 8 115 0 58 -4 110 -8 116 -4 7 -41 -7 -107 -41z"/>
<path d="M2373 1872 l-193 -36 0 -163 c0 -124 3 -163 13 -163 6 0 99 12 205
27 l192 27 0 173 c0 132 -3 173 -12 172 -7 -1 -100 -17 -205 -37z"/>
<path d="M1238 1527 l-108 -20 0 -149 c0 -81 3 -148 8 -148 4 0 54 7 112 15
58 8 108 15 113 15 4 0 7 70 7 155 0 118 -3 155 -12 154 -7 -1 -61 -10 -120
-22z"/>
<path d="M2569 1155 c-3 -2 -73 -13 -155 -24 -83 -11 -170 -23 -193 -27 l-41
-7 0 -173 0 -174 205 0 205 0 0 205 c0 181 -4 218 -21 200z"/>
</g>
</svg>
